<?xml version="1.0" encoding="UTF-8" standalone="no"?>
<!-- Created with Inkscape (http://www.inkscape.org/) -->

<svg
   width="54.451706mm"
   height="96.379807mm"
   viewBox="0 0 54.451706 96.379807"
   version="1.1"
   id="svg1"
   xml:space="preserve"
   xmlns:inkscape="http://www.inkscape.org/namespaces/inkscape"
   xmlns:sodipodi="http://sodipodi.sourceforge.net/DTD/sodipodi-0.dtd"
   xmlns="http://www.w3.org/2000/svg"
   xmlns:svg="http://www.w3.org/2000/svg"><sodipodi:namedview
     id="namedview1"
     pagecolor="#ffffff"
     bordercolor="#000000"
     borderopacity="0.25"
     inkscape:showpageshadow="2"
     inkscape:pageopacity="0.0"
     inkscape:pagecheckerboard="0"
     inkscape:deskcolor="#d1d1d1"
     inkscape:document-units="mm"><inkscape:page
       x="0"
       y="0"
       width="54.451706"
       height="96.379807"
       id="page2"
       margin="0"
       bleed="0" /></sodipodi:namedview><defs
     id="defs1" /><g
     inkscape:label="Capa 1"
     inkscape:groupmode="layer"
     id="layer1"
     transform="translate(-77.774141,-97.227266)"><g
       id="g366"
       transform="translate(10.545625,32.512912)"
       inkscape:export-filename="amarillo.png"
       inkscape:export-xdpi="96"
       inkscape:export-ydpi="96"><path
         style="fill:#fadb57"
         d="m 91.635311,160.79764 -17.817742,-0.15955 -0.723479,-0.60807 -0.723478,-0.60808 -0.301515,-0.73545 -0.301515,-0.73546 -0.46059,-12.49016 L 70.846403,132.97071 70.166342,113.20829 69.486281,93.445866 69.3208,92.457745 69.155319,91.469624 H 68.704297 68.253274 L 67.740897,90.991851 67.22852,90.514078 v -2.805829 -2.80583 l 0.391269,-0.364844 0.39127,-0.364845 h 0.575433 0.575433 l 0.300273,-0.532065 0.300274,-0.532065 1.192545,-5.320652 1.192545,-5.320651 0.803435,-3.496429 0.803435,-3.496428 0.549032,-0.380046 0.549032,-0.380047 h 20.129998 20.129996 l 0.43484,0.405474 0.43484,0.405474 1.07669,5.447243 1.07668,5.447243 0.65203,3.19239 0.65203,3.192391 0.14133,0.465123 0.14133,0.465122 0.97899,0.34457 0.97898,0.34457 v 3.234315 3.234315 l -1.1412,0.444622 -1.1412,0.444622 -0.002,0.07193 -0.002,0.07193 -1.78797,33.239619 -1.78798,33.23962 -0.55978,0.88365 -0.55979,0.88364 -1.04178,0.46097 -1.04178,0.46097 -1.58101,-0.0685 -1.58102,-0.0685 z m 22.533909,-1.36411 0.75412,-0.74851 0.26092,-2.97595 0.26091,-2.97594 0.35627,-7.14488 0.35627,-7.14487 0.47844,-8.81708 0.47844,-8.81708 0.32703,-6.23277 0.32703,-6.23276 0.31995,-6.68882 0.31994,-6.688818 0.15967,-1.520186 0.15967,-1.520187 -0.2589,-0.386118 -0.25889,-0.386118 -23.942009,0.234099 -23.942009,0.2341 0.08094,5.47267 0.08094,5.472668 0.325163,8.66506 0.325162,8.66506 0.324672,9.12112 0.324671,9.12112 0.36713,9.88121 0.367129,9.88121 0.456799,0.8317 0.456798,0.83169 0.7277,0.15649 0.727701,0.15648 2.934523,0.0894 2.934524,0.0894 16.327587,0.0625 16.327589,0.0625 z m -23.168145,-32.64425 -1.823012,-0.56371 -1.553568,-0.99669 -1.553568,-0.99669 -1.025206,-1.35149 -1.025205,-1.35149 -0.382767,-0.96807 -0.382767,-0.96807 -0.02481,-1.84607 -0.02481,-1.84608 0.513575,-1.40546 0.513575,-1.40546 1.322179,-1.40063 1.32218,-1.40063 1.870856,-0.88063 1.870855,-0.88062 2.097545,-0.3406 2.097546,-0.3406 2.191222,0.47385 2.191222,0.47386 1.310733,0.62353 1.31074,0.62352 1.27071,1.22096 1.27072,1.22096 0.73844,1.42239 0.73844,1.42239 0.1343,1.7313 0.1343,1.7313 -0.59163,1.76953 -0.59163,1.76952 -1.81223,1.69877 -1.81223,1.69877 -1.953942,0.68436 -1.953945,0.68436 -2.282407,0.12866 -2.282408,0.12867 z m 6.079401,-0.44993 1.973983,-0.38592 1.510811,-0.8256 1.51082,-0.8256 1.18916,-1.35321 1.18917,-1.35321 0.46145,-1.42974 0.46146,-1.42974 v -0.96062 -0.96063 l -0.49232,-1.54583 -0.49231,-1.54583 -1.43153,-1.48467 -1.43152,-1.48467 -1.907347,-0.90116 -1.907344,-0.90116 h -3.260582 -3.260582 l -2.062648,1.0428 -2.062648,1.0428 -1.105453,1.20425 -1.105454,1.20426 -0.541246,1.51948 -0.541247,1.51949 0.169613,1.74419 0.169613,1.7442 0.598429,1.17808 0.598428,1.17809 1.31952,1.23208 1.319519,1.23208 1.501713,0.67787 1.501712,0.67787 1.424308,0.26101 1.424307,0.26101 0.652116,0.027 0.652117,0.027 z m -8.641048,-3.31302 -1.09837,-0.69693 -0.64175,-0.80801 -0.64175,-0.808 1.021413,-1.66468 1.021413,-1.66467 0.467299,-0.36163 0.4673,-0.36163 0.916377,0.098 0.916377,0.098 0.103237,0.83673 0.103238,0.83673 -0.704283,0.92228 -0.704282,0.92227 0.176474,0.42883 0.176474,0.42883 1.728804,0.0924 1.728804,0.0924 v 1.06413 1.06413 l -1.969203,0.0889 -1.969202,0.0888 z m 7.611572,-0.0617 -0.944506,-0.78054 0.815145,-0.60466 0.815145,-0.60466 1.304233,-0.0114 1.304233,-0.0114 0.44119,-0.26069 0.44119,-0.26068 -0.75964,-1.23077 -0.759639,-1.23076 0.613528,-0.63215 0.613528,-0.63216 h 0.608763 0.60876 l 0.98784,1.44418 0.98783,1.44418 -0.20782,1.05362 -0.20783,1.05363 -0.4695,0.8466 -0.46951,0.84661 -1.70343,0.004 -1.703435,0.004 -0.685784,0.17166 -0.685784,0.17166 z m 0.987286,-7.10066 -0.350614,-0.22338 -0.616346,-0.98812 -0.616346,-0.98812 h -0.465747 -0.465746 l -1.068849,1.14014 -1.068848,1.14014 -0.895913,-0.45606 -0.895914,-0.45605 -0.115097,-0.32485 -0.115097,-0.32485 0.996506,-1.28273 0.996505,-1.28273 0.752534,-0.26679 0.752533,-0.26679 1.485102,-0.20767 1.485102,-0.20766 1.338114,1.689 1.338114,1.68901 v 0.44417 0.44417 l -0.197914,0.48093 -0.197913,0.48092 -0.861776,-0.005 -0.861775,-0.005 z m 21.382594,-32.178665 0.35953,-0.335417 -1.00103,-5.137254 -1.00103,-5.137253 -0.30096,-1.368168 -0.30096,-1.368167 -0.40327,-2.128261 -0.40327,-2.12826 -0.34995,-0.427319 -0.34996,-0.427319 -19.851041,0.17859 -19.851045,0.178589 -0.32162,0.299899 -0.321619,0.299898 -1.923662,8.608351 -1.923661,8.608351 0.163348,0.39693 0.163349,0.39693 23.628658,-0.08735 23.628663,-0.08735 z"
         id="path368" /><path
         style="fill:#fccb03"
         d="m 77.82541,159.96756 -2.934523,-0.0894 -0.727701,-0.15648 -0.7277,-0.15649 -0.456798,-0.83169 -0.456799,-0.8317 -0.367129,-9.88121 -0.36713,-9.88121 -0.324671,-9.12112 -0.324672,-9.12112 -0.325162,-8.66506 -0.325163,-8.66506 -0.08094,-5.472668 -0.08094,-5.47267 23.942009,-0.2341 23.942009,-0.234099 0.25889,0.386118 0.2589,0.386118 -0.15967,1.520187 -0.15967,1.520186 -0.31994,6.688818 -0.31995,6.68882 -0.32703,6.23276 -0.32703,6.23277 -0.47844,8.81708 -0.47844,8.81708 -0.35627,7.14487 -0.35627,7.14488 -0.26091,2.97594 -0.26092,2.97595 -0.75412,0.74851 -0.75411,0.74851 -16.327589,-0.0625 -16.327587,-0.0625 z m 21.517436,-33.55626 1.953944,-0.68436 1.81223,-1.69877 1.81223,-1.69877 0.59163,-1.76952 0.59163,-1.76953 -0.1343,-1.7313 -0.1343,-1.7313 -0.73844,-1.42239 -0.73844,-1.42239 -1.27072,-1.22096 -1.27071,-1.22096 -1.31074,-0.62352 -1.310735,-0.62353 -2.191222,-0.47386 -2.191222,-0.47385 -2.097546,0.3406 -2.097545,0.3406 -1.870855,0.88062 -1.870856,0.88063 -1.32218,1.40063 -1.322179,1.40063 -0.513575,1.40546 -0.513575,1.40546 0.02481,1.84608 0.02481,1.84607 0.382767,0.96807 0.382767,0.96807 1.025205,1.35149 1.025206,1.35149 1.553568,0.99669 1.553568,0.99669 1.823012,0.56371 1.823011,0.56371 2.282408,-0.12867 2.282407,-0.12866 z M 70.64068,83.798485 l -0.163348,-0.39693 1.923661,-8.608351 1.923662,-8.608351 0.321619,-0.299898 0.32162,-0.299899 19.851045,-0.178589 19.851041,-0.17859 0.34996,0.427319 0.34995,0.427319 0.40327,2.12826 0.40327,2.128261 0.30096,1.368167 0.30096,1.368168 1.00103,5.137253 1.00103,5.137254 -0.35953,0.335417 -0.35953,0.335416 -23.628663,0.08735 -23.628658,0.08735 z m 39.88078,-7.537505 0.0902,-4.111284 -0.41629,-0.502334 -0.41629,-0.502333 -15.161704,-0.06003 -15.161705,-0.06003 -0.407573,0.03708 -0.407572,0.03708 v 4.509886 4.509885 l 0.220468,0.205579 0.220469,0.205579 15.674867,-0.0789 15.67487,-0.0789 z"
         id="path367" /><path
         style="fill:#2e2608"
         d="M 78.861024,80.324479 78.640556,80.1189 v -4.509885 -4.509886 l 0.407572,-0.03708 0.407573,-0.03708 15.161705,0.06003 15.161704,0.06003 0.41629,0.502333 0.41629,0.502334 -0.0902,4.111284 -0.0902,4.111285 -15.67487,0.0789 -15.674867,0.0789 z"
         id="path366" /></g></g></svg>
