<?xml version="1.0" encoding="UTF-8" standalone="no"?>
<!-- Created with Inkscape (http://www.inkscape.org/) -->

<svg
   width="70.379311mm"
   height="119.24395mm"
   viewBox="0 0 70.379311 119.24395"
   version="1.1"
   id="svg1"
   xml:space="preserve"
   xmlns:inkscape="http://www.inkscape.org/namespaces/inkscape"
   xmlns:sodipodi="http://sodipodi.sourceforge.net/DTD/sodipodi-0.dtd"
   xmlns="http://www.w3.org/2000/svg"
   xmlns:svg="http://www.w3.org/2000/svg"><sodipodi:namedview
     id="namedview1"
     pagecolor="#ffffff"
     bordercolor="#000000"
     borderopacity="0.25"
     inkscape:showpageshadow="2"
     inkscape:pageopacity="0.0"
     inkscape:pagecheckerboard="0"
     inkscape:deskcolor="#d1d1d1"
     inkscape:document-units="mm"><inkscape:page
       x="0"
       y="0"
       width="70.379311"
       height="119.24395"
       id="page2"
       margin="0"
       bleed="0" /></sodipodi:namedview><defs
     id="defs1" /><rect
     style="fill:#ffffff;stroke-width:0.264583"
     id="rect373"
     width="38.723244"
     height="36.896679"
     x="14.566398"
     y="47.383976" /><g
     inkscape:label="Capa 1"
     inkscape:groupmode="layer"
     id="layer1"
     transform="translate(-75.66607,-88.878021)"><g
       id="g372"
       transform="translate(16.055386,-1.383324)"><path
         style="fill:#7aaffc"
         d="m 89.04,209.13836 -20.37,-0.19807 -0.702561,-0.3132 -0.702561,-0.31321 -0.611091,-1.20104 -0.611092,-1.20104 -0.263316,-7.00338 -0.263316,-7.00338 -1.273377,-34.0528 -1.273376,-34.05279 -0.173342,-0.15624 -0.173341,-0.15624 -1.386314,-0.25486 -1.386313,-0.25485 -0.119659,-4.09465 -0.119658,-4.09465 0.486085,-0.52791 0.486086,-0.52791 h 1.183786 1.183786 l 0.244877,-0.35712 0.244876,-0.35713 2.554895,-10.90507 2.554895,-10.905069 0.426442,-0.473202 0.426443,-0.473201 h 26.173786 26.17379 l 0.27792,0.405321 0.27792,0.405321 2.27159,11.01887 2.27159,11.01887 0.18396,0.16581 0.18396,0.16581 1.38632,0.25556 1.38631,0.25555 v 4.52722 4.52721 l -1.47,0.18928 -1.47,0.18928 -0.30308,1.32497 -0.30308,1.32496 -1.27951,24.03864 -1.27951,24.03864 -0.84998,15.89957 -0.84999,15.89957 -0.47396,1.08582 -0.47395,1.08581 -1.29347,0.71094 -1.29347,0.71093 -4.62,-0.0844 -4.62,-0.0844 z m 11.04516,-42.41155 2.73363,-0.76103 2.20463,-1.78659 2.20463,-1.78658 0.98187,-1.90048 0.98187,-1.90048 0.004,-2.22745 0.004,-2.22745 -0.47445,-1.42733 -0.47445,-1.42733 -1.53327,-1.83436 -1.53326,-1.83436 -3.2544,-1.49531 -3.254402,-1.49532 -3.452884,0.0213 -3.452884,0.0213 -2.37178,0.82414 -2.371779,0.82415 -1.897983,1.50583 -1.897984,1.50584 -1.085237,1.96292 -1.085237,1.96292 0.0023,2.29168 0.0023,2.29168 0.43447,1.41004 0.434471,1.41004 1.348187,1.58536 1.348187,1.58536 2.042528,1.26445 2.042528,1.26444 1.947472,0.54044 1.947472,0.54044 2.370759,0.0264 2.37076,0.0264 z m -12.243133,-2.92995 -0.387527,-0.66248 -0.720428,-2.93797 -0.720429,-2.93798 0.239997,-0.56371 0.239997,-0.56372 h 1.992404 1.992405 l 0.955611,-1.04104 0.955611,-1.04105 1.253868,1.32497 1.253867,1.32496 0.0113,0.63774 0.0113,0.63773 -0.639723,2.74109 -0.639724,2.74109 -0.461703,0.50143 -0.461704,0.50143 H 90.47335 88.229554 Z m 5.356654,-1.97869 0.448286,-1.88405 0.270196,-1.523 0.270196,-1.523 H 90.563679 86.94 v 0.54435 0.54435 l 0.659571,2.56342 0.659572,2.56341 0.205216,0.29929 0.205215,0.29928 h 2.04041 2.04041 z m 4.844848,1.46689 -0.286046,-0.41717 0.296659,-4.12557 0.296658,-4.12556 h -0.428058 -0.428058 l -1.135591,0.38915 -1.135591,0.38915 -0.224334,-0.2022 -0.224333,-0.2022 1.752583,-1.35213 1.752582,-1.35214 v -0.53834 -0.53835 h -0.429004 -0.429005 l -0.477634,-0.94486 -0.477635,-0.94487 0.761734,-0.75866 0.761734,-0.75866 h 1.110905 1.110905 l 0.504,0.45428 0.504,0.45427 v 1.37327 1.37326 l 1.00467,2.242 1.00467,2.24199 -0.30026,1.75167 -0.30025,1.75167 0.53361,1.62893 0.53362,1.62894 -0.21282,0.31036 -0.21281,0.31037 h -0.38814 -0.38814 l -1.06415,-1.8928 -1.06415,-1.89281 H 99.952925 99.54 v 0.89908 0.89909 l -0.2625,1.183 -0.2625,1.183 h -0.342713 -0.342713 z m 3.333491,-9.778 -1.03189,-2.471 0.10948,-0.76494 0.10947,-0.76494 -0.32683,-0.4732 -0.326824,-0.4732 h -0.980278 -0.980277 l -0.281141,0.66035 -0.281141,0.66036 1.146332,0.82387 1.146333,0.82387 -0.672725,0.92541 -0.672725,0.9254 0.443626,0.39986 0.443625,0.39986 -0.172644,2.44382 -0.172645,2.44383 0.791738,-0.42666 0.791736,-0.42666 0.69488,0.92593 0.69488,0.92594 0.27946,-2.04345 0.27946,-2.04345 z m 27.9568,-31.27137 0.43542,-0.39264 -0.265,-3.63619 -0.265,-3.63619 -1.51462,-0.22582 -1.51462,-0.22581 -30.87,0.0239 -30.87,0.0239 -1.89,0.25587 -1.89,0.25586 -0.119387,3.8553 -0.119388,3.8553 1.379388,0.16017 1.379387,0.16017 32.844203,-0.0406 32.844207,-0.0406 z M 115.29,103.70027 V 98.021853 H 94.92 74.55 l -0.11716,5.247857 -0.11716,5.24787 0.486938,0.52883 0.486939,0.52884 20.000222,-0.0983 20.000221,-0.0983 z"
         id="path373" /><path
         style="fill:#287dfb"
         d="M 88.464359,163.40294 88.259143,163.10365 87.599571,160.54024 86.94,157.97682 v -0.54435 -0.54435 h 3.623679 3.62368 l -0.270196,1.523 -0.270196,1.523 -0.448286,1.88405 -0.448287,1.88405 h -2.04041 -2.04041 z m 12.690761,-4.26392 -0.69488,-0.92593 -0.791736,0.42666 -0.791738,0.42666 0.172645,-2.44383 0.172644,-2.44382 -0.443625,-0.39986 -0.443626,-0.39986 0.672725,-0.9254 0.672725,-0.92541 -1.146333,-0.82387 -1.146332,-0.82387 0.281141,-0.66036 0.281141,-0.66035 h 0.980277 0.980278 l 0.326824,0.4732 0.32683,0.4732 -0.10947,0.76494 -0.10948,0.76494 1.03189,2.471 1.0319,2.471 -0.27946,2.04345 -0.27946,2.04345 z m -39.324507,-36.5897 -1.379388,-0.16017 0.119388,-3.8553 0.119387,-3.8553 1.89,-0.25586 1.89,-0.25587 30.87,-0.0239 30.87,-0.0239 1.51462,0.22581 1.51462,0.22582 0.265,3.63619 0.265,3.63619 -0.43542,0.39264 -0.43541,0.39264 -32.844207,0.0406 -32.844203,0.0406 z m 12.972005,-13.50291 -0.486938,-0.52883 0.11716,-5.24787 0.11716,-5.247857 h 20.37 20.37 v 5.678417 5.67842 l -20.000221,0.0983 -20.000222,0.0983 z"
         id="path372" /></g></g></svg>
