<?xml version="1.0" encoding="UTF-8" standalone="no"?>
<!-- Created with Inkscape (http://www.inkscape.org/) -->

<svg
   width="64.026276mm"
   height="113.32625mm"
   viewBox="0 0 64.026276 113.32625"
   version="1.1"
   id="svg1"
   xml:space="preserve"
   xmlns:inkscape="http://www.inkscape.org/namespaces/inkscape"
   xmlns:sodipodi="http://sodipodi.sourceforge.net/DTD/sodipodi-0.dtd"
   xmlns="http://www.w3.org/2000/svg"
   xmlns:svg="http://www.w3.org/2000/svg"><sodipodi:namedview
     id="namedview1"
     pagecolor="#ffffff"
     bordercolor="#000000"
     borderopacity="0.25"
     inkscape:showpageshadow="2"
     inkscape:pageopacity="0.0"
     inkscape:pagecheckerboard="0"
     inkscape:deskcolor="#d1d1d1"
     inkscape:document-units="mm"><inkscape:page
       x="0"
       y="0"
       width="64.026276"
       height="113.32625"
       id="page2"
       margin="0"
       bleed="0" /></sodipodi:namedview><defs
     id="defs1" /><g
     inkscape:label="Capa 1"
     inkscape:groupmode="layer"
     id="layer1"
     transform="translate(-69.870788,-88.732107)"><g
       id="g368"
       transform="translate(-0.36531364,6.7484102)"><path
         style="fill:#8f3030"
         d="m 90.124542,194.96127 -12.312712,-0.18901 -0.881275,-0.96504 -0.881275,-0.96505 -0.228421,-3.3364 -0.228422,-3.33641 -1.162625,-35.1285 -1.162624,-35.1285 -0.186402,-1.16498 -0.186402,-1.16497 h -0.888008 -0.888009 l -0.441131,-0.5004 -0.441131,-0.5004 0.108945,-3.69745 0.108945,-3.69745 1.25677,-0.24128 1.256769,-0.24127 0.224627,-0.21147 0.224628,-0.21147 2.383164,-10.619473 2.383165,-10.619471 0.323723,-0.280074 0.323722,-0.280075 23.645607,-0.249216 23.6456,-0.249216 0.54763,0.515559 0.54763,0.515559 1.82835,9.458919 1.82834,9.458918 0.36025,1.3442 0.36025,1.34421 h 1.12033 1.12033 l 0.21375,0.80652 0.21375,0.80652 -0.11131,3.58454 -0.11131,3.58454 -1.14226,0.1172 -1.14226,0.11719 -0.29858,0.27143 -0.29857,0.27144 -2.07399,39.00663 -2.07399,39.00663 -0.21787,0.64624 -0.21787,0.64624 -1.15112,0.91188 -1.15112,0.91188 -10.91744,-0.0798 -10.91744,-0.0798 z m 35.080478,-1.42235 0.95609,-1.06971 0.24165,-3.32915 0.24164,-3.32915 1.90157,-36.16747 1.90156,-36.16746 0.20039,-0.30524 0.20038,-0.30524 h 1.31017 1.31016 v -3.76377 -3.76377 l -0.85669,-0.005 -0.8567,-0.005 -0.53039,-0.31619 -0.5304,-0.31619 -2.13606,-10.880014 -2.13606,-10.880011 -5.13898,-0.08735 -5.13898,-0.08735 -18.630959,0.266576 -18.630954,0.266577 -2.328982,10.396621 -2.328983,10.396621 -0.245216,0.6016 -0.245216,0.6016 -1.259279,0.11385 -1.259279,0.11386 -0.108509,3.67416 -0.108508,3.67415 h 0.934062 0.934062 l 0.563773,0.20367 0.563773,0.20367 0.04855,4.18739 0.04855,4.1874 0.548999,14.87584 0.548998,14.87584 0.588476,17.92271 0.588476,17.9227 0.217373,2.5966 0.217373,2.59659 0.695065,0.80872 0.695066,0.80872 10.790448,0.18144 10.790448,0.18144 12.238463,0.0952 12.23847,0.0952 z m -26.656763,-37.79995 -1.604479,-0.49262 -1.689455,-0.93211 -1.689454,-0.9321 -1.532074,-1.63859 -1.532073,-1.63859 -0.599724,-1.65702 -0.599725,-1.65701 v -2.20884 -2.20885 l 1.16009,-2.18558 1.16009,-2.18559 1.392619,-1.15112 1.392619,-1.15113 2.111516,-0.93238 2.111516,-0.93238 h 3.997907 3.99791 l 2.09414,0.93097 2.09414,0.93097 1.65576,1.52252 1.65576,1.52251 0.96192,1.97805 0.96192,1.97806 v 2.29841 2.29842 l -1.20881,2.31164 -1.20881,2.31164 -1.62958,1.25711 -1.62957,1.25711 -1.87344,0.78926 -1.87343,0.78926 -3.2364,0.1103 -3.2364,0.11031 z m 10.287253,-1.47472 2.20997,-1.0288 1.3549,-1.41187 1.35489,-1.41187 0.78409,-1.65692 0.78408,-1.65692 -0.0177,-2.23434 -0.0177,-2.23434 -1.02289,-1.96827 -1.02289,-1.96826 -1.54316,-1.24354 -1.54316,-1.24353 -1.76522,-0.79928 -1.76522,-0.79929 -3.42678,-0.15114 -3.426777,-0.15114 -2.150149,0.76287 -2.150148,0.76286 -1.720627,1.42585 -1.720626,1.42586 -0.983827,1.85866 -0.983827,1.85866 0.0037,2.34918 0.0037,2.34919 0.89047,1.79227 0.890471,1.79227 1.716144,1.48313 1.716144,1.48314 0.911632,0.46133 0.911632,0.46132 1.523012,0.47168 1.523016,0.47168 3.2364,-0.11082 3.2364,-0.11082 z m -1.76241,-3.45815 -0.54479,-1.19906 -1.4257,-3.02523 -1.42569,-3.02524 0.42724,-0.64405 0.42724,-0.64406 v -0.36331 -0.36332 h -0.30896 -0.30895 l -3.59377,2.89591 -3.593762,2.89591 -0.643789,0.33144 -0.64379,0.33143 -0.606607,-0.80778 -0.606607,-0.80778 -0.543262,-1.79227 -0.543263,-1.79227 0.287631,-1.25459 0.28763,-1.25459 2.838664,0.0237 2.838665,0.0237 3.14263,0.12037 3.14264,0.12038 0.42595,0.48318 0.42595,0.48319 h 0.85864 0.85864 l 0.37668,0.44806 0.37667,0.44807 1.57371,3.40594 1.57372,3.40594 v 0.62186 0.62186 l -1.40561,0.5529 -1.4056,0.55291 -0.85868,0.20289 -0.85868,0.20289 z m 2.80921,-0.17319 1.5588,-0.58718 -0.21348,-0.80076 -0.21348,-0.80075 -1.48798,-3.04653 -1.48799,-3.04653 -1.18173,-0.16328 -1.18173,-0.16329 -0.5709,0.82028 -0.57091,0.82028 1.76739,3.77747 1.76738,3.77747 h 0.12792 0.12792 z m -10.654425,-6.26001 3.209365,-2.54574 0.10817,-0.26892 0.10816,-0.26892 -2.58306,-0.22965 -2.583056,-0.22965 -1.570606,-0.003 -1.570607,-0.003 -0.219558,1.0335 -0.219558,1.03349 0.403499,1.38607 0.403499,1.38607 0.352991,0.62729 0.352991,0.6273 h 0.299201 0.2992 z"
         id="path370" /><path
         style="fill:#7d0000"
         d="m 88.981535,194.23679 -10.790448,-0.18144 -0.695066,-0.80872 -0.695065,-0.80872 -0.218117,-2.59659 -0.218116,-2.5966 -0.614669,-18.46038 -0.614669,-18.46039 -0.645978,-17.9227 -0.645978,-17.92271 0.228046,-0.65425 0.228045,-0.65425 27.94848,0.04 27.94848,0.04 0.12526,0.11793 0.12526,0.11792 -1.9013,36.16251 -1.9013,36.16251 -0.24164,3.32915 -0.24165,3.32915 -0.95609,1.06971 -0.9561,1.06971 -12.23847,-0.0952 -12.238467,-0.0952 z m 19.517435,-39.01506 1.87344,-0.78926 1.62957,-1.25711 1.62958,-1.25711 1.20881,-2.31164 1.20881,-2.31164 v -2.29842 -2.29841 l -0.96192,-1.97806 -0.96192,-1.97805 -1.65576,-1.52251 -1.65576,-1.52252 -2.09414,-0.93097 -2.09414,-0.93097 h -3.99791 -3.997907 l -2.111516,0.93238 -2.111516,0.93238 -1.392619,1.15113 -1.392619,1.15112 -1.16009,2.18559 -1.16009,2.18558 v 2.20885 2.20884 l 0.599725,1.65701 0.599724,1.65702 1.532073,1.63859 1.532074,1.63859 1.689454,0.9321 1.689455,0.93211 1.604479,0.49262 1.604483,0.49263 3.2364,-0.11031 3.2364,-0.1103 z m -2.19867,-7.77911 -1.76739,-3.77747 0.57091,-0.82028 0.5709,-0.82028 1.18173,0.16329 1.18173,0.16328 1.48799,3.04653 1.48798,3.04653 0.21348,0.80075 0.21348,0.80076 -1.5588,0.58718 -1.55879,0.58718 h -0.12792 -0.12792 z m -11.233176,-1.15128 -0.352991,-0.62729 -0.403499,-1.38607 -0.403499,-1.38607 0.219558,-1.03349 0.219558,-1.0335 1.570607,0.003 1.570606,0.003 2.583056,0.22965 2.58306,0.22965 -0.10816,0.26892 -0.10817,0.26892 -3.209365,2.54574 -3.209369,2.54574 h -0.2992 -0.299201 z m -20.977955,-41.58067 0.01802,-0.26884 2.38758,-10.574396 2.38758,-10.574395 23.526401,-0.302129 23.5264,-0.302128 0.29443,0.302128 0.29443,0.302129 1.97163,10.215941 1.97163,10.21594 0.1937,0.6273 0.19371,0.62729 H 102.46291 74.07115 Z m 46.357711,-4.46275 0.4569,-0.430148 v -4.723548 -4.723549 l -0.47594,-0.353616 -0.47594,-0.353615 -17.79178,-0.219215 -17.791783,-0.219215 -0.38918,0.684601 -0.38918,0.684602 v 4.665657 4.665656 l 0.666318,0.36537 0.666317,0.36536 17.533678,0.0109 17.53368,0.0109 z"
         id="path369" /><path
         style="fill:#530000"
         d="m 72.439891,112.94897 -1.440881,-0.12821 0.108246,-3.6464 0.108246,-3.6464 1.523012,-0.25357 1.523012,-0.25356 28.175724,-0.0167 28.17573,-0.0167 1.42783,0.22218 1.42782,0.22219 v 3.66751 3.66752 l -2.17679,0.24085 -2.17679,0.24086 -27.61714,-0.0857 -27.617137,-0.0857 z M 84.256295,100.2909 83.589977,99.92553 v -4.665656 -4.665657 l 0.38918,-0.684602 0.38918,-0.684601 17.791783,0.219215 17.79178,0.219215 0.47594,0.353615 0.47594,0.353616 v 4.723549 4.723548 l -0.4569,0.430148 -0.45691,0.43014 -17.53368,-0.0109 -17.533678,-0.0109 z"
         id="path368" /></g></g></svg>
