<?xml version="1.0" encoding="UTF-8" standalone="no"?>
<!-- Created with Inkscape (http://www.inkscape.org/) -->

<svg
   width="210mm"
   height="297mm"
   viewBox="0 0 210 297"
   version="1.1"
   id="svg1"
   xml:space="preserve"
   xmlns:inkscape="http://www.inkscape.org/namespaces/inkscape"
   xmlns:sodipodi="http://sodipodi.sourceforge.net/DTD/sodipodi-0.dtd"
   xmlns="http://www.w3.org/2000/svg"
   xmlns:svg="http://www.w3.org/2000/svg"><sodipodi:namedview
     id="namedview1"
     pagecolor="#ffffff"
     bordercolor="#000000"
     borderopacity="0.25"
     inkscape:showpageshadow="2"
     inkscape:pageopacity="0.0"
     inkscape:pagecheckerboard="0"
     inkscape:deskcolor="#d1d1d1"
     inkscape:document-units="mm"><inkscape:page
       x="0"
       y="0"
       width="210"
       height="297"
       id="page2"
       margin="0"
       bleed="0" /></sodipodi:namedview><defs
     id="defs1" /><g
     inkscape:label="Capa 1"
     inkscape:groupmode="layer"
     id="layer1"><path
       style="display:inline;fill:#447921;fill-opacity:1;stroke-width:0.264583"
       d="M 82.560884,82.012913 77.263836,105.7583 79.638376,198 c 0,0 -0.365313,4.20111 3.835794,4.38376 4.201104,0.18266 49.13469,0 49.13469,0 0,0 2.73985,1.64391 3.28782,-6.02767 0.54797,-7.67159 4.2011,-87.30996 4.2011,-87.30996 l 0.18266,-3.10517 -4.74908,-24.476017 z"
       id="path686" /><path
       style="display:inline;fill:#2d5016;fill-opacity:1;stroke-width:0.264583"
       d="m 73.428044,105.94096 0.365313,8.58487 69.957563,0.36531 -0.18266,-8.76753 z"
       id="path687" /><path
       style="fill:#2d5016;fill-opacity:1;stroke-width:0.264583"
       d="m 87.675274,89.867157 0.365316,11.324723 41.09778,-0.18266 -0.18265,-11.142063 z"
       id="path688" /><ellipse
       style="display:inline;fill:#ffffff;fill-opacity:1;stroke-width:0.264583"
       id="path689"
       cx="110.96402"
       cy="150.50922"
       rx="14.521217"
       ry="13.333948" /><path
       style="display:inline;fill:#9ee773;fill-opacity:1;stroke-width:0.264583"
       d="m 99.593634,151.74216 c 0,0 -0.684964,-1.18727 -0.365315,-1.96356 0.319651,-0.7763 5.023061,-2.78552 5.023061,-2.78552 l 0.27399,2.69419 1.09594,0.0457 1.82657,-2.60286 c 0,0 -1.18727,1.9179 -1.09594,2.51153 0.0913,0.59364 1.64391,0.91329 2.51153,-1.73524 0.86762,-2.64852 -0.137,1.96357 -0.137,1.96357 0,0 1.46126,0.95894 2.14622,-1.36993 0.68497,-2.32888 0.0457,1.50692 0.0457,1.50692 0,0 1.09594,0.54797 1.46125,-1.00462 0.36532,-1.55258 0.18266,0.86763 0.18266,0.86763 0,0 0.91328,0.91328 1.55258,-0.68497 0.6393,-1.59825 0.41098,0.73063 0.41098,0.73063 0,0 0.36531,0.50231 1.05028,-1.18727 0.68496,-1.68958 0.13699,1.46125 0.13699,1.46125 0,0 1.05028,-0.0457 1.2786,-0.73062 0.22832,-0.68497 0.13699,0.68496 0.13699,0.68496 0,0 0.95895,-0.45664 0.91328,-1.05028 -0.0457,-0.59363 0.13699,1.09594 0.13699,1.09594 0,0 0.82196,0.137 1.05028,-0.59363 0.22832,-0.73063 0.22832,0.73063 0.22832,0.73063 0,0 1.36993,-1.78091 3.28783,-2.46587 1.91789,-0.68496 -0.137,1.50692 -0.137,1.50692 0,0 -0.54797,0.36531 -1.32426,0.50231 -0.77629,0.13699 -0.0913,0.68496 -0.0913,0.68496 0,0 2.83118,0.5023 2.37454,2.73985 -0.45664,2.23755 -3.60747,-2.5572 -3.60747,-2.5572 h -0.68496 c 0,0 -0.0913,0.27399 0.18265,0.7763 0.27399,0.5023 -0.91328,-0.82196 -0.91328,-0.82196 0,0 -0.91329,0 -0.77629,0.77629 0.13699,0.77629 -0.45664,-0.5023 -0.45664,-0.5023 0,0 -0.86762,-0.31965 -0.50231,0.77629 0.36531,1.09594 -1.05028,-0.91329 -1.05028,-0.91329 0,0 -0.73063,-0.82195 -0.22832,0.36532 0.50231,1.18727 -0.77629,-0.31965 -0.77629,-0.31965 0,0 -0.6393,-0.41098 -0.54797,0.5023 0.0913,0.91329 -0.95895,-0.22832 -1.00461,-0.5023 -0.0457,-0.27399 -0.6393,0.13699 -0.6393,0.13699 0,0 0.13699,0.0457 0.41098,0.77629 0.27398,0.73063 -1.14161,-0.36531 -1.14161,-0.77629 0,-0.41098 -0.91328,0 -0.91328,0 0,0 -0.36532,1.00461 0.36531,1.2786 0.73063,0.27398 -0.73063,0.0457 -0.73063,0.0457 0,0 -0.77629,-0.95895 -0.6393,-1.50692 0.137,-0.54797 -0.41097,-0.0913 -0.41097,-0.0913 l -0.68497,0.137 c 0,0 -0.0457,1.18727 0.54797,1.96356 0.59364,0.77629 0.22833,0.59363 0.22833,0.59363 0,0 -1.36993,-1.46125 -1.4156,-2.4202 -0.0457,-0.95895 -1.55258,-0.22832 -1.55258,-0.22832 0,0 -0.13699,1.32426 0.59364,2.14622 0.73062,0.82195 -1.2786,-1.09594 -1.41559,-1.78091 -0.137,-0.68496 -1.46126,-0.27398 -1.46126,-0.27398 l -0.0913,3.15083 c 0,0 -4.01845,0 -4.657746,-2.28321 z"
       id="path690" /><ellipse
       style="fill:#ffffff;fill-opacity:1;stroke-width:0.264583"
       id="path691"
       cx="103.08694"
       cy="149.27629"
       rx="0.66213095"
       ry="0.77629161" /></g></svg>
